<?xml version="1.0" encoding="utf-8" ?>
<!-- Generator: Adobe Illustrator 26.2.1, SVG Export Plug-In . SVG Version: 6.00 Build 0)  -->
<svg
  version="1.1"
  id="Layer_1"
  xmlns="http://www.w3.org/2000/svg"
  xmlns:xlink="http://www.w3.org/1999/xlink"
  x="0px"
  y="0px"
  viewBox="0 0 50 50"
  style="enable-background:new 0 0 50 50;"
  xml:space="preserve"
>
<style type="text/css">
	.st0{fill:#ddd;}
</style>
<g>
	<path
      class="st0"
      d="M46.88,12.5L46.88,12.5l-6.25-3.57v0h0L37.5,7.14l-3.12-1.79l-3.12-1.79h0l-3.12-1.79L25,0l-6.25,3.57
		l-3.12,1.79L9.38,8.93l-3.12,1.79L3.12,12.5L0,14.29v21.43l3.12,1.79l6.25,3.57l3.12,1.79l3.12,1.79l3.12,1.79L25,50l3.12-1.79
		l3.12-1.79l6.25-3.57l3.12-1.79l6.25-3.57v0L50,35.71V14.29L46.88,12.5z M46.88,33.93l-3.12,1.79l-3.12,1.79h0l-3.12,1.79h0
		l-3.12,1.79v0l-3.12,1.79h0l-3.12,1.79h0v0L25,46.43l-3.12-1.79l-6.25-3.57v0L9.38,37.5v0l-6.25-3.57V16.07l6.25-3.57l3.12-1.79
		l3.12-1.79v0l6.25-3.57L25,3.57l3.12,1.79v0l6.25,3.57v0l6.25,3.57l3.12,1.79l3.12,1.79V33.93z"
    />
	<polygon
      class="st0"
      points="23.19,8.93 23.19,16.07 19.8,17.86 19.8,14.29 16.41,16.07 16.41,16.07 9.64,19.64 9.64,30.36 
		16.41,33.93 16.41,33.93 19.8,35.71 19.8,28.57 16.41,30.36 16.41,26.79 19.8,25 23.19,23.21 23.19,41.07 19.8,39.29 19.8,39.29 
		16.41,37.5 16.41,37.5 13.03,35.71 9.64,33.93 9.64,33.93 9.64,33.93 6.25,32.14 6.25,17.86 9.64,16.07 13.02,14.29 13.03,14.29 
		13.03,14.28 19.8,10.71 23.19,8.93 	"
    />
	<polygon
      class="st0"
      points="30.37,35.72 33.71,33.93 40.4,30.36 40.4,30.36 43.75,28.57 43.75,32.14 40.4,33.93 33.71,37.5 
		33.71,37.5 27.02,41.07 27.02,8.93 30.37,10.71 33.71,12.5 33.71,12.5 33.71,12.5 37.06,14.29 40.4,16.07 43.75,17.86 43.75,17.86 
		43.75,21.43 40.4,19.64 37.06,17.86 33.71,16.07 30.37,14.29 	"
    />
</g>
</svg>